<svg xmlns="http://www.w3.org/2000/svg" version="1" width="1024" height="729" viewBox="-187.82 -187.82 9320.64 6636.303">
  <path d="M7364 52.757s-110-20-251-1l-237 46s-141 41-257 88c0 0-105 42-247 113l-224 136s-193-292-457-398l-4-1-3-2s-170-61-352-19c0 0-183 42-334 177l-2 1s-155 140-277 326c0 0-135-4-273-5h-112s-92-5-267 7l-261 9s-308 16-632 87c0 0-92 6-152-26 0 0-288-149-712-288l-219-56s-136-33-232-43c0 0-272-27-433 107 0 0-195 229-287 527 0 0-64 195-82 473 0 0-6 173 36 380 0 0 23 117 92 367 0 0 11 34-9 71 0 0-369 640-389 1274 0 0-2 9-1 107 0 0 0 64-38 89l-193 18-247 28s-149 17-237 59c0 0-69 29-71 120 0 0 5 38 39 52 0 0 73 12 178-1l175-19 245-21 90-2s52 3 72 38c0 0 21 73 56 240 0 0 33 156 59 237 0 0 11 29 1 53 0 0-12 27-51 42l-200 58s-116 36-191 83c0 0-32 11-50 45 0 0-15 30-11 54 0 0 4 23 43 43 0 0 45 23 96 15 0 0 92-15 165-39l182-38s101-14 162 48l80 141 86 139s8 19 46 66c0 0 20 21 15 55 0 0-6 37-42 56 0 0-110 70-338 199 0 0-54 32-110 79 0 0-78 65-104 117v60s4 36 26 52c0 0 36 15 75 10 0 0 36-5 64-26l279-172s167-104 285-152c0 0 26-16 59-16 0 0 36 1 62 25 0 0 207 162 326 244 0 0 306 211 557 314 0 0 310 126 559 187 0 0 231 56 575 95l504 49s594 54 1181 9c0 0 294-22 468-56 0 0 273-31 571-115 0 0 216-61 405-137 0 0 185-74 350-182 0 0 117-76 326-242 0 0 141-124 260-257 0 0 18-20 48-30l60-1s37 9 98 37c0 0 69 33 97 42l215 95s129 59 221 73c0 0 34 2 56-22 0 0 19-20 20-46 0 0 17-60-41-112 0 0-97-69-261-149l-269-132s-35-18-44-44c0 0-7-21 4-38l70-157 69-159 33-87s22-51 68-60l202 12 198 27 117 4s73 0 113-25c0 0 18-14 18-48 0 0 0-34-20-45 0 0-135-79-309-110l-102-17-90-14-56-7s-24-5-43-23c0 0-20-19-16-36 0 0 3-64 21-190 0 0 18-126 20-193l1-74s-1-45 25-65c0 0 110-32 299-21l310 12 102-7s82-12 86-73c0 0-9-48-60-76 0 0-6-4-92-37l-233-26-249-7-71 4s-42 4-63 0c0 0-23 1-40-22 0 0-15-19-17-41l-62-397s-37-176-121-360c0 0 62-86 154-244l6-13s148-311 152-618c0 0 2-85-10-167 0 0-15-122-103-222 0 0-88-99-209-130l-51-12s-29-491-171-813c0 0-79-143-132-204 0 0-92-107-209-133"/>
  <path d="M7178 334.757s-70 7-243 64c0 0-137 45-265 95 0 0-125 41-390 190l56 142 16 47 1 3s19 55 25 127c0 0 147 5 274 62 0 0 131 58 230 165l55 67s44-39 94-53c0 0 279-93 573-81l-16-139-28-185s-25-131-62-226c0 0-41-106-113-214 0 0-33-63-102-71l-105 7M6569 2530.757s-24-42-30-89c0 0-100 26-199 25 0 0-182 1-344-88 0 0-161-88-265-243 0 0-30 25-60 39l-22 8s-337 113-589 96c0 0-252-17-430-166l-5-4-4-5s-244-232-223-632c0 0 12-223 127-569l2-8 28-67s-332 2-659 15l-454 33s-49 3-125 21l-127 29s-150 29-246-26c0 0-428-251-873-364 0 0-178-38-256-40 0 0-156-3-236 79 0 0-138 166-201 396 0 0-54 195-60 457 0 0 11 105 28 177 0 0 22 93 59 164 0 0 12 21 40 12l57-33s34-15 66-9c0 0 57 8 74 64 0 0 12 48-16 108l-182 268s-100 156-148 283c0 0-239 517-246 1104 0 0 10 19 26 34 0 0 17 16 34 18l139 15 141 22s30 14 106 35c0 0 61 26 58 85 0 0-16 65-94 72 0 0-95-4-133 0l-91-7-92-2s-27 1-42 17c0 0-15 16-14 45v44s18 204 115 414c0 0 34 30 88 10l132-14 117 8s34 9 46 41c0 0 10 28 2 59 0 0-3 13-31 33 0 0-127 46-208 68 0 0-25 11-36 31 0 0-12 22 0 45 0 0 34 74 92 161l110 150s48 61 148 42l129-54s70-25 137-22c0 0 41 2 63 39 0 0 19 32 14 71 0 0-27 47-102 84 0 0-88 43-114 70 0 0-8 23 3 30 0 0 243 184 451 303 0 0 254 146 488 216 0 0 323 96 432 122 0 0 284 68 590 92 0 0 637 72 1314 34 0 0 548-30 863-110 0 0 495-81 936-331 0 0 154-93 249-164 0 0 134-103 220-213 0 0 15-19 13-36 0 0-2-17-18-28 0 0-58-28-85-45 0 0-47-29-61-71 0 0-8-22-3-48 0 0 6-30 28-42 0 0 46-33 116-20l121 27s78 20 109-51c0 0 115-197 163-352 0 0 14-34 3-57 0 0-9-18-29-24l-130-38s-73-32-71-86c0 0 15-59 71-76l120-5 67 4s41-1 57-27c0 0 23-128 39-265 0 0 10-52 6-162 0 0 3-41-14-54 0 0-8-7-38-10l-11-1-160 23-160 21s-81-4-108-73c0 0-13-59 38-97 0 0 47-24 109-37l103-23 107-16s68-8 104-23c0 0 31-17 31-60 0 0-26-263-96-487l-26-84s-269 233-572 188c0 0-200-30-369-186 0 0-141-131-221-307" fill="#fff"/>
  <path d="M2550 3733.757s61-25 132-7c0 0 60 15 116 58 0 0 64 68 81 177 0 0 13 84 0 203 0 0-13 76-47 133 0 0-42 68-107 96 0 0-76 26-153 14 0 0-83-14-133-68 0 0-68-81-78-207 0 0-9-110 27-227 0 0 19-56 62-103 0 0 46-52 100-69M4784 4890.757s-119 80-286 74c0 0-149-5-288-73 0 0-72-36-105-109 0 0-32-70-21-157 0 0 9-66 42-120 0 0 38-59 96-88 0 0 112-74 270-71 0 0 154 3 273 74 0 0 56 26 94 81 0 0 37 54 45 118 0 0 10 83-22 154 0 0-31 71-98 117"/>
  <path d="M4524 4514.757s103 8 158 73c0 0 20 15 28 42l10 50s-1 30-23 56c0 0-20 24-49 37 0 0-77 39-175 34 0 0-101-4-169-54 0 0-59-56-38-110 0 0 7-29 30-58 0 0 22-28 49-43 0 0 90-35 179-27" fill="#eec827"/>
  <path d="M6504 4119.757s-37 241-193 290c0 0-73 22-147-7 0 0-72-28-119-93 0 0-45-63-54-158 0 0-7-66 3-173 0 0 15-74 54-134 0 0 44-68 106-96 0 0 51-20 117-15 0 0 64 5 112 30 0 0 147 119 121 356"/>
  <path d="M5359 214.757s134-37 257 8c0 0 190 77 336 280 0 0 114 160 195 390 0 0 5 21 17 48l3 35s-4 18-20 23c0 0-84 29-130 51l-32 8s-18-2-25-16l-48-40s-99-72-228-77c0 0-128-6-236 57 0 0-121 73-177 196 0 0-54 119-36 258 0 0 17 100 83 188 0 0 66 89 157 132 0 0 37 18 73 26 0 0 46 10 51 41l22 115s10 35-36 55c0 0-560 188-826-34 0 0-177-169-160-479 0 0 11-197 116-514 0 0 67-178 170-335 0 0 109-165 246-289 0 0 104-93 228-127" fill="#e72235"/>
  <path d="M5451 1386.757s7 53 40 99c0 0 33 48 81 72l26 1s14-7 20-24c0 0 48-170 155-293 0 0 14-18 13-39 0 0-1-19-12-27 0 0-46-26-100-29 0 0-55-4-100 19 0 0-63 30-96 90 0 0-34 61-27 131M6736 1366.757s108 112 135 274c0 0 26 160-36 302 0 0-57 145-198 236 0 0-139 91-295 87 0 0-144 2-272-76 0 0-126-78-198-209 0 0-74-130-57-300 0 0 17-170 115-283 0 0 74-103 221-168 0 0 153-57 315-18 0 0 162 38 270 155M7875 1408.757s61 14 109 69c0 0 49 54 56 116 0 0 22 165-15 348 0 0-33 163-109 324 0 0-145 258-287 393 0 0-211 200-440 167 0 0-141-21-266-139 0 0-114-106-177-251 0 0-12-13-8-35 0 0 3-21 17-33l53-40s36-20 67 7c0 0 79 55 176 68 0 0 102 13 187-25 0 0 98-39 164-130 0 0 66-91 73-197 0 0 5-103-36-191 0 0-42-90-125-150 0 0-80-53-176-65 0 0-22-4-36-16 0 0-14-13-16-31l-27-110s-3-42 31-53c0 0 187-63 388-71 0 0 210-9 397 45" fill="#e72235"/>
  <path d="M7209 2134.757s-33 36-69 44l-71 3s-34-7-62-30c0 0-10-8-10-26 0 0-1-19 9-33 0 0 47-87 72-191 0 0 1-15 16-28 0 0 15-13 28-10 0 0 49 6 93 51 0 0 60 69 36 149 0 0-10 37-42 71" fill="#e72235"/>
</svg>
