<svg data-name="hello kitty" xmlns="http://www.w3.org/2000/svg" width="982.61" height="687.74"><path d="M808.94 5.8a97.44 97.44 0 0 0-27.57-.11l-26 5.05s-15.49 4.5-28.24 9.67c0 0-11.53 4.61-27.13 12.41l-24.61 14.94s-21.2-32.08-50.2-43.72l-.44-.11-.33-.22s-18.67-6.7-38.66-2.09c0 0-20.11 4.62-36.69 19.45l-.22.11a208.14 208.14 0 0 0-30.43 35.81s-14.83-.44-30-.55h-12.3s-10.11-.55-29.33.77l-28.68 1a483.7 483.7 0 0 0-69.42 9.55s-10.11.66-16.7-2.85c0 0-31.63-16.37-78.21-31.64l-24.06-6.15s-14.94-3.63-25.48-4.73c0 0-29.88-3-47.57 11.76 0 0-21.42 25.15-31.53 57.89 0 0-7 21.42-9 52a199.3 199.3 0 0 0 3.95 41.74s2.53 12.85 10.11 40.32a10.69 10.69 0 0 1-1 7.8s-40.54 70.3-42.73 139.95c0 0-.22 1-.11 11.75 0 0 0 7-4.18 9.78l-21.2 2-27.14 2.99s-16.37 1.87-26 6.48c0 0-7.58 3.19-7.8 13.18 0 0 .55 4.18 4.29 5.72a76 76 0 0 0 19.55-.11l19.23-2.09 26.91-2.31 9.89-.22s5.71.33 7.9 4.18c0 0 2.31 8 6.16 26.36 0 0 3.62 17.14 6.48 26 0 0 1.21 3.19.11 5.83a10.07 10.07 0 0 1-5.6 4.61l-22 6.37s-12.75 4-21 9.12a10.89 10.89 0 0 0-5.49 4.94s-1.65 3.3-1.21 5.93c0 0 .44 2.53 4.73 4.73a19.25 19.25 0 0 0 10.54 1.65 142 142 0 0 0 18.13-4.29l20-4.17s11.09-1.54 17.8 5.27l8.78 15.49 9.44 15.33s.88 2.09 5.05 7.25a7.55 7.55 0 0 1 1.65 6 9.2 9.2 0 0 1-4.61 6.15s-12.09 7.69-37.13 21.86a102.76 102.76 0 0 0-12.08 8.74s-8.57 7.14-11.43 12.85v6.59s.44 4 2.86 5.72a18.1 18.1 0 0 0 8.24 1.09 17.26 17.26 0 0 0 7-2.85l30.64-18.9s18.38-11.5 31.34-16.73a13.67 13.67 0 0 1 6.48-1.76 11.57 11.57 0 0 1 6.81 2.75s22.74 17.79 35.81 26.8c0 0 33.62 23.18 61.19 34.49 0 0 34.05 13.84 61.41 20.54 0 0 25.37 6.16 63.16 10.44l55.37 5.38s65.25 5.93 129.73 1c0 0 32.3-2.42 51.41-6.15a446.42 446.42 0 0 0 62.73-12.64s23.73-6.7 44.49-15a249.07 249.07 0 0 0 38.45-20s12.85-8.34 35.81-26.58a387.57 387.57 0 0 0 28.56-28.23 13.42 13.42 0 0 1 5.28-3.3l6.59-.11a66.7 66.7 0 0 1 10.76 4.07s7.58 3.62 10.66 4.61l23.62 10.44s14.17 6.48 24.27 8a8.4 8.4 0 0 0 6.15-2.42 8.73 8.73 0 0 0 2.2-5.05s1.87-6.59-4.5-12.31a222.06 222.06 0 0 0-28.67-16.36l-29.55-14.5s-3.85-2-4.84-4.84a5.33 5.33 0 0 1 .44-4.17l7.69-17.25 7.58-17.46 3.63-9.56s2.41-5.6 7.47-6.59l22.19 1.32 21.75 3 12.85.44s8 0 12.41-2.75c0 0 2-1.53 2-5.27 0 0 0-3.73-2.2-4.94a114.55 114.55 0 0 0-33.94-12.09l-11.21-1.86-9.88-1.54-6.15-.77a10.91 10.91 0 0 1-4.73-2.53s-2.19-2.08-1.76-4c0 0 .33-7 2.31-20.87 0 0 2-13.84 2.2-21.2l.11-8.13s-.11-4.95 2.74-7.14c0 0 12.09-3.52 32.85-2.31l34.05 1.32 11.21-.77s9-1.32 9.45-8a13.2 13.2 0 0 0-6.6-8.35s-.65-.44-10.1-4.06l-25.6-2.86-27.35-.77-7.8.44a34.1 34.1 0 0 1-6.92 0 5.56 5.56 0 0 1-4.39-2.41 9.76 9.76 0 0 1-1.87-4.51l-6.81-43.61a213.14 213.14 0 0 0-13.29-39.55s6.81-9.44 16.91-26.8l.66-1.43s16.26-34.16 16.7-67.88a125.06 125.06 0 0 0-1.1-18.35 50.32 50.32 0 0 0-11.31-24.39s-9.67-10.87-23-14.28l-5.6-1.31s-3.19-53.94-18.79-89.31c0 0-8.68-15.71-14.5-22.41 0 0-10.11-11.76-23-14.61"/><path d="M788.51 36.78s-7.69.76-26.69 7c0 0-15 4.94-29.11 10.43 0 0-13.74 4.51-42.85 20.87l6.16 15.6 1.75 5.16.11.33a63.57 63.57 0 0 1 2.75 14s16.15.54 30.1 6.81c0 0 14.39 6.37 25.26 18.12l6.05 7.36a30.6 30.6 0 0 1 10.32-5.82s30.65-10.22 63-8.9l-1.76-15.27-3.08-20.32s-2.74-14.39-6.81-24.83a136.14 136.14 0 0 0-12.41-23.5s-3.63-6.92-11.21-7.8l-11.53.77M721.61 278.01a30 30 0 0 1-3.29-9.78 95.9 95.9 0 0 1-21.86 2.75s-20 .11-37.79-9.67c0 0-17.69-9.67-29.11-26.69a36.39 36.39 0 0 1-6.59 4.28l-2.42.88s-37 12.41-64.7 10.54c0 0-27.69-1.86-47.24-18.23l-.55-.44-.44-.55s-26.8-25.48-24.49-69.43c0 0 1.31-24.49 13.95-62.5l.22-.88 3.07-7.36s-36.47.22-72.39 1.65l-49.87 3.62a89.85 89.85 0 0 0-13.73 2.31l-14 3.19s-16.48 3.18-27-2.86c0 0-47-27.57-95.9-40 0 0-19.55-4.18-28.12-4.4 0 0-17.13-.33-25.92 8.68a128.51 128.51 0 0 0-22.08 43.5 227.55 227.55 0 0 0-6.59 50.2 193.73 193.73 0 0 0 3.07 19.45s2.42 10.21 6.48 18a3.6 3.6 0 0 0 4.4 1.32l6.26-3.63a14.19 14.19 0 0 1 7.25-1s6.26.87 8.13 7a19.23 19.23 0 0 1-1.76 11.86l-20 29.44s-11 17.14-16.26 31.09c0 0-26.25 56.79-27 121.27a16.21 16.21 0 0 0 2.85 3.74 8.1 8.1 0 0 0 3.74 2l15.27 1.65 15.49 2.42a83.64 83.64 0 0 0 11.62 3.94s6.7 2.86 6.37 9.34c0 0-1.76 7.14-10.32 7.91 0 0-10.44-.44-14.61 0l-10-.77-10.11-.22a7.51 7.51 0 0 0-4.61 1.87 7.17 7.17 0 0 0-1.54 4.94v4.83a153.85 153.85 0 0 0 12.63 45.48s3.74 3.3 9.67 1.1l14.5-1.54 12.85.88a8 8 0 0 1 5.06 4.51 12.18 12.18 0 0 1 .22 6.48s-.33 1.43-3.41 3.62c0 0-14 5.06-22.85 7.47a9.4 9.4 0 0 0-3.95 3.41 5.58 5.58 0 0 0 0 4.94 143.79 143.79 0 0 0 10.1 17.64l12.09 16.47s5.27 6.71 16.26 4.62l14.17-5.93s7.69-2.75 15.05-2.42a9.16 9.16 0 0 1 6.92 4.28 13.48 13.48 0 0 1 1.53 7.8s-3 5.17-11.2 9.23c0 0-9.67 4.72-12.52 7.69 0 0-.88 2.53.33 3.3 0 0 26.69 20.21 49.54 33.28 0 0 27.9 16 53.61 23.73 0 0 35.48 10.54 47.45 13.4a475.91 475.91 0 0 0 64.81 10.11s70 7.9 144.35 3.73c0 0 60.19-3.29 94.8-12.08 0 0 54.37-8.9 102.82-36.36 0 0 16.91-10.22 27.35-18 0 0 14.72-11.31 24.17-23.4 0 0 1.64-2.08 1.42-4a4.75 4.75 0 0 0-2-3.08s-6.37-3.07-9.34-4.94c0 0-5.16-3.19-6.7-7.8a10.93 10.93 0 0 1-.33-5.27s.66-3.3 3.08-4.62a17.54 17.54 0 0 1 12.74-2.19l13.29 3s8.57 2.2 12-5.6c0 0 12.64-21.64 17.91-38.67 0 0 1.54-3.73.33-6.26a5.68 5.68 0 0 0-3.19-2.64l-14.28-4.17s-8-3.51-7.8-9.45c0 0 1.65-6.48 7.8-8.35l13.18-.54 7.36.44s4.51-.11 6.27-3c0 0 2.52-14.06 4.28-29.11 0 0 1.1-5.71.66-17.8 0 0 .33-4.5-1.54-5.93 0 0-.88-.77-4.17-1.1l-1.21-.11-17.58 2.53-17.54 2.32s-8.9-.44-11.87-8a11 11 0 0 1 4.18-10.66 53.39 53.39 0 0 1 12-4.06l11.32-2.53 11.72-1.75s7.47-.88 11.42-2.52a7.51 7.51 0 0 0 3.41-6.59s-2.86-28.9-10.55-53.5l-2.8-9.25s-29.55 25.6-62.84 20.65a84.67 84.67 0 0 1-40.53-20.43s-15.54-14.36-24.33-33.72" fill="#fff"/><path d="M280.12 410.16a25.38 25.38 0 0 1 14.5-.77 39.06 39.06 0 0 1 12.75 6.37 39.45 39.45 0 0 1 8.94 19.44 93.92 93.92 0 0 1 0 22.3s-1.42 8.35-5.16 14.61c0 0-4.61 7.47-11.75 10.55 0 0-8.35 2.85-16.81 1.54 0 0-9.12-1.54-14.61-7.47a43.46 43.46 0 0 1-8.57-22.74 74.17 74.17 0 0 1 3-24.94 35.79 35.79 0 0 1 6.81-11.31s5.05-5.72 11-7.58M525.53 537.25a57.33 57.33 0 0 1-31.42 8.12s-16.37-.55-31.64-8c0 0-7.9-4-11.53-12a35 35 0 0 1-2.31-17.25 38.85 38.85 0 0 1 4.62-13.18s4.17-6.48 10.54-9.67a56.56 56.56 0 0 1 29.66-7.8s16.92.33 30 8.13a28.88 28.88 0 0 1 10.33 8.9 33.26 33.26 0 0 1 4.94 13s1.1 9.12-2.42 16.92a33.83 33.83 0 0 1-10.76 12.85"/><path d="M496.97 495.95s11.31.88 17.35 8a9.67 9.67 0 0 1 3.08 4.61l1.1 5.49a11.06 11.06 0 0 1-2.53 6.16 17 17 0 0 1-5.38 4.06 42 42 0 0 1-19.23 3.74s-11.09-.44-18.56-5.94c0 0-6.48-6.15-4.17-12.08a18.16 18.16 0 0 1 3.29-6.37 21.06 21.06 0 0 1 5.38-4.72s9.89-3.85 19.67-3" fill="#eec827"/><path d="M714.47 452.56s-4.06 26.47-21.2 31.86a27.34 27.34 0 0 1-16.15-.77 32.63 32.63 0 0 1-13.07-10.22 38.66 38.66 0 0 1-5.93-17.36 105.65 105.65 0 0 1 .33-19 48.66 48.66 0 0 1 5.93-14.7s4.83-7.47 11.64-10.55a32.18 32.18 0 0 1 12.86-1.64s7 .55 12.3 3.29c0 0 16.15 13.07 13.29 39.11"/><path d="M588.69 23.59s14.72-4.06 28.23.88c0 0 20.88 8.46 36.91 30.76a189.92 189.92 0 0 1 21.42 42.84 33.38 33.38 0 0 0 1.87 5.27l.33 3.85a3.63 3.63 0 0 1-2.2 2.53s-9.22 3.18-14.28 5.6l-3.51.88a3.77 3.77 0 0 1-2.75-1.76l-5.27-4.39s-10.88-7.91-25-8.46c0 0-14.06-.66-25.92 6.26 0 0-13.29 8-19.44 21.53a57.88 57.88 0 0 0-4 28.34 53.42 53.42 0 0 0 9.11 20.65s7.25 9.78 17.24 14.5a42.58 42.58 0 0 0 8 2.86s5.06 1.1 5.61 4.5l2.41 12.64s1.1 3.84-3.95 6c0 0-61.52 20.65-90.74-3.74 0 0-19.44-18.56-17.57-52.62 0 0 1.2-21.64 12.74-56.46 0 0 7.36-19.55 18.67-36.8 0 0 12-18.12 27-31.75 0 0 11.42-10.21 25-13.95" fill="#e72235"/><path d="M598.8 152.37a25.89 25.89 0 0 0 13.29 18.78l2.86.11a5 5 0 0 0 2.19-2.63s5.28-18.68 17-32.19a7.31 7.31 0 0 0 1.43-4.28 4.45 4.45 0 0 0-1.32-3 28.22 28.22 0 0 0-11-3.19 23.67 23.67 0 0 0-11 2.09s-6.92 3.3-10.55 9.89a27.37 27.37 0 0 0-3 14.39M739.96 150.14s11.86 12.3 14.83 30.1c0 0 2.85 17.58-4 33.17 0 0-6.26 15.93-21.75 25.93 0 0-15.27 10-32.4 9.56 0 0-15.82.22-29.88-8.35 0 0-13.85-8.57-21.75-23a60.5 60.5 0 0 1-6.27-33s1.87-18.67 12.64-31.08c0 0 8.13-11.32 24.27-18.46 0 0 16.81-6.26 34.61-2 0 0 17.79 4.18 29.66 17M865.08 154.75a25 25 0 0 1 12 7.58s5.38 5.94 6.15 12.75a129.26 129.26 0 0 1-1.65 38.22 176 176 0 0 1-12 35.6s-15.93 28.34-31.53 43.17c0 0-23.18 22-48.33 18.34a59.84 59.84 0 0 1-29.22-15.27s-12.52-11.64-19.45-27.57a4.64 4.64 0 0 1-.87-3.84 6.61 6.61 0 0 1 1.86-3.63l5.83-4.39a6.67 6.67 0 0 1 7.36.77 49.51 49.51 0 0 0 19.33 7.47s11.2 1.42 20.54-2.75a45.73 45.73 0 0 0 18-14.28s7.25-10 8-21.64c0 0 .54-11.32-4-21a47.71 47.71 0 0 0-13.73-16.48 50.93 50.93 0 0 0-19.33-7.14 9.7 9.7 0 0 1-4-1.76 6.15 6.15 0 0 1-1.76-3.4l-3-12.09s-.33-4.61 3.4-5.82c0 0 20.55-6.92 42.63-7.8 0 0 23.06-1 43.61 4.94" fill="#e72235"/><path d="M791.92 234.51s-3.61 3.95-7.61 4.86l-7.8.33a17.6 17.6 0 0 1-6.81-3.3 3.69 3.69 0 0 1-1.1-2.85 6.45 6.45 0 0 1 1-3.63 97.41 97.41 0 0 0 7.9-21 4.9 4.9 0 0 1 1.76-3.08s1.65-1.42 3.08-1.09a19 19 0 0 1 10.21 5.6s6.6 7.58 4 16.37a20.56 20.56 0 0 1-4.61 7.8" fill="#e72235"/></svg>
